#format: frame checksums
#version: 1
#hash: MD5
#tb 0: 1001/30000
#stream#, dts,        pts, duration,     size, hash
0,          0,          0,        1,    60000, b339f4e563afadb25f43b8c05b12dc03
0,          1,          1,        1,    60000, 3bd5280e7fb42400085b0b1dbba1905e
0,          2,          2,        1,    60000, acf1c84cabff763fe2073d2c1f183bfc
0,          3,          3,        1,    60000, eaa4983b6baf907efb11d137644569d2
0,          4,          4,        1,    60000, 8a1871c8dc38a19dfd4ac571ad7f39be
0,          5,          5,        1,    60000, 0be539bd51f5f364828dd0abc70360be
0,          6,          6,        1,    60000, df60622d2c9f294f61d738be9e3bd16c
0,          7,          7,        1,    60000, 22b3f1d51ddf92c7d2add305ba0ef405
0,          8,          8,        1,    60000, 01ba29be721e64a5a50526de0797c7d3
0,          9,          9,        1,    60000, 7b7aa7fa0e58202b3104671375762587
